<svg version="1.2" xmlns="http://www.w3.org/2000/svg" viewBox="0 0 64 64" width="64" height="64"><style>.a{fill:#ff0}</style><path class="a" d="m25.2 11.5c0-1.8 0.7-3.5 2-4.8 1.3-1.3 3-2 4.8-2 1.8 0 3.5 0.7 4.8 2 1.3 1.3 2 3 2 4.8 0 1.8-0.7 3.6-2 4.8-1.3 1.3-3 2-4.8 2-1.8 0-3.5-0.7-4.8-2-1.3-1.2-2-3-2-4.8zm5.1 34.2v10.2c0 1.9-1.5 3.4-3.4 3.4-1.9 0-3.4-1.5-3.4-3.4v-20.5l-2.3 3.5c-1 1.6-3.1 2.1-4.7 1.1-1.6-1-2-3.1-1-4.7l4.2-6.7c2.7-4.3 7.3-6.8 12.3-6.8 5 0 9.6 2.5 12.3 6.7l4.2 6.8c1 1.6 0.6 3.7-1 4.7-1.6 1-3.7 0.5-4.7-1.1l-2.3-3.5v20.5c0 1.9-1.5 3.4-3.4 3.4-1.9 0-3.4-1.5-3.4-3.4v-10.2z"/></svg>