<svg version="1.2" xmlns="http://www.w3.org/2000/svg" viewBox="0 0 64 64" width="64" height="64"><style>.a{fill:#ff0}</style><path fill-rule="evenodd" class="a" d="m24.9 13.2c0.1 3.5-2.1 6.5-5 7.9v4.1c0 1.9 1.5 3.4 3.4 3.4h17c1.9 0 3.4-1.5 3.4-3.4v-4.1c-3-1.4-5.1-4.4-5.1-7.9 0-4.7 3.8-8.5 8.6-8.5 4.7 0 8.5 3.8 8.5 8.5 0 3.5-2.1 6.5-5.2 7.9v4.1c0 5.6-4.5 10.2-10.2 10.2h-5.1v7.5c3 1.4 5.1 4.4 5.1 7.9 0 4.7-3.8 8.5-8.5 8.5-4.7 0-8.6-3.8-8.6-8.5 0-3.5 2.1-6.5 5.2-7.9v-7.5h-5.2c-5.6 0-10.2-4.6-10.2-10.2v-4.2c-3-1.3-5.1-4.3-5.1-7.8 0-4.7 3.8-8.5 8.5-8.5 4.7 0 8.5 3.8 8.5 8.5zm-8.5 2.6c0.7 0 1.3-0.3 1.8-0.8 0.5-0.5 0.8-1.1 0.8-1.8 0-0.7-0.3-1.3-0.8-1.8-0.5-0.5-1.1-0.7-1.8-0.7-0.7 0-1.3 0.2-1.8 0.7-0.5 0.5-0.7 1.1-0.7 1.8 0 0.7 0.2 1.3 0.7 1.8 0.5 0.5 1.1 0.8 1.8 0.8zm30.8 0c0.6 0 1.3-0.3 1.7-0.8 0.5-0.5 0.8-1.1 0.8-1.8 0-0.7-0.3-1.3-0.8-1.8-0.4-0.5-1.1-0.7-1.8-0.7-0.6 0-1.3 0.2-1.8 0.7-0.5 0.5-0.7 1.1-0.7 1.8 0 0.7 0.2 1.3 0.7 1.8 0.5 0.5 1.2 0.8 1.8 0.8zm-12.8 35c0-0.7-0.2-1.4-0.7-1.8-0.5-0.5-1.1-0.8-1.8-0.8-0.7 0-1.4 0.3-1.8 0.8-0.5 0.5-0.8 1.1-0.8 1.8 0 0.6 0.3 1.3 0.8 1.8 0.4 0.5 1.1 0.7 1.8 0.7 0.7 0 1.3-0.2 1.8-0.7 0.5-0.5 0.7-1.2 0.7-1.8z"/></svg>