<svg version="1.2" xmlns="http://www.w3.org/2000/svg" viewBox="0 0 64 64" width="64" height="64"><style>.a{fill:#ff0}</style><path fill-rule="evenodd" class="a" d="m45.4 34.6c-1.3 6.3-6.8 11-13.4 11-6.6 0-12.1-4.7-13.4-11h-11.2c-1.5 0-2.7-1.2-2.7-2.7 0-1.5 1.2-2.7 2.7-2.7h11.2c1.3-6.3 6.8-11 13.4-11 6.6 0 12.1 4.7 13.4 11h11.2c1.5 0 2.7 1.2 2.7 2.7 0 1.5-1.2 2.7-2.7 2.7zm-13.4 4.1c1.8 0 3.5-0.7 4.8-2 1.3-1.3 2-3 2-4.8 0-1.8-0.7-3.6-2-4.8-1.3-1.3-3-2-4.8-2-1.8 0-3.6 0.7-4.8 2-1.3 1.2-2 3-2 4.8 0 1.8 0.7 3.5 2 4.8 1.2 1.3 3 2 4.8 2z"/></svg>