<svg version="1.2" xmlns="http://www.w3.org/2000/svg" viewBox="0 0 64 64" width="64" height="64"><style>.a{fill:#ff0}</style><path fill-rule="evenodd" class="a" d="m49.3 19.4v6.3c0 1.6-1.2 3-2.8 3.1-2.5 5.6-8 9.5-14.5 9.5-6.5 0-12-3.9-14.4-9.5-1.6-0.1-2.9-1.5-2.9-3.1v-6.3c0-1.6 1.3-3 2.9-3.1 2.4-5.6 7.9-9.5 14.4-9.5 6.5 0 12 3.9 14.5 9.5 1.6 0.1 2.8 1.5 2.8 3.1zm-11-3.1h-12.6c-2.6 0-4.7 2.1-4.7 4.7v1.6c0 5.2 4.2 9.4 9.4 9.4h3.2c5.2 0 9.4-4.2 9.4-9.4v-1.6c0-2.6-2.1-4.7-4.7-4.7zm-7.6 7.1c0.3 0.1 0.5 0.4 0.5 0.7 0 0.4-0.2 0.7-0.5 0.8l-2.1 0.5-0.6 2.1c-0.1 0.4-0.4 0.6-0.7 0.6-0.3 0-0.6-0.2-0.7-0.6l-0.6-2.1-2.1-0.5c-0.3-0.1-0.6-0.4-0.6-0.8 0-0.3 0.3-0.6 0.6-0.7l2.1-0.6 0.6-2.1c0.1-0.3 0.4-0.5 0.7-0.5 0.3 0 0.6 0.2 0.7 0.5l0.6 2.1zm1.3 18.1c4.1-0.1 7.9-1.3 11-3.5 6.5 2.5 11.1 8.9 11.1 16.3 0 1.6-1.3 2.9-2.9 2.9h-9.7v-6.3c0-1.7-1.4-3.1-3.2-3.1h-12.6c-1.7 0-3.1 1.4-3.1 3.1v6.3h-9.7c-1.6 0-2.9-1.3-2.9-2.9 0-7.4 4.6-13.8 11.1-16.3 3.1 2.1 6.8 3.4 10.9 3.4zm-3.1 11.1v4.7h-3.2v-4.7c0-0.9 0.7-1.6 1.6-1.6 0.9 0 1.6 0.7 1.6 1.6zm6.7 1.1c-0.3-0.3-0.4-0.7-0.4-1.1 0-0.4 0.1-0.8 0.4-1.1 0.3-0.3 0.7-0.5 1.2-0.5 0.4 0 0.8 0.2 1.1 0.5 0.3 0.3 0.4 0.7 0.4 1.1 0 0.4-0.1 0.8-0.4 1.1-0.3 0.3-0.7 0.5-1.1 0.5-0.5 0-0.9-0.2-1.2-0.5z"/></svg>